<svg xmlns="http://www.w3.org/2000/svg" width="1560" height="901" viewBox="0 0 1560 901">
  <defs>
    <style>
      .panel { font: bold 19px 'Times New Roman','Liberation Serif',serif; fill:#1a1a1a; }
      .lbl { font: 15px 'Times New Roman','Liberation Serif',serif; fill:#1a1a1a; }
      .lblB { font: bold 15px 'Times New Roman','Liberation Serif',serif; fill:#1a1a1a; }
      .small { font: 12px 'Times New Roman','Liberation Serif',serif; fill:#555; }
      .tiny { font: italic 11px 'Times New Roman','Liberation Serif',serif; fill:#666; }
      .math { font: italic 15px 'Times New Roman','Liberation Serif',serif; fill:#1a1a1a; }
      .formula { font: italic 14px 'Times New Roman','Liberation Serif',serif; fill:#222; }
      .edge { stroke:#333333; stroke-width:1.6; fill:none; marker-end:url(#arrow); }
      .dash { stroke:#8a8a8a; stroke-width:1.6; stroke-dasharray:6 5; fill:none; marker-end:url(#arrow2); }
</style>
    <marker id="arrow" markerWidth="10" markerHeight="10" refX="8" refY="5" orient="auto">
      <path d="M0,0 L10,5 L0,10 z" fill="#333333"/>
    </marker>
    <marker id="arrow2" markerWidth="10" markerHeight="10" refX="8" refY="5" orient="auto">
      <path d="M0,0 L10,5 L0,10 z" fill="#8a8a8a"/>
    </marker>
  </defs>
  <rect width="1560" height="901" fill="#ffffff"/>
  <text x="30" y="40" class="panel">(A) Independent Expert Training  (repeated for k = 0, 1, …, K)</text><path d="M47,181.64 V238.36 A38,10.64 0 0 0 123,238.36 V181.64" fill="#fff" stroke="#333333" stroke-width="1.4"/><ellipse cx="85" cy="181.64" rx="38" ry="10.64" fill="#fff" stroke="#333333" stroke-width="1.4"/><text x="85" y="267.0" text-anchor="middle" class="math">D_train</text><path d="M47,411.64 V468.36 A38,10.64 0 0 0 123,468.36 V411.64" fill="#fff" stroke="#333333" stroke-width="1.4"/><ellipse cx="85" cy="411.64" rx="38" ry="10.64" fill="#fff" stroke="#333333" stroke-width="1.4"/><text x="85" y="497.0" text-anchor="middle" class="math">D_Aux</text><path d="M123 210 H260" class="edge"/><text x="145" y="172" text-anchor="start" class="small">D_0, D_1, …, D_K</text><text x="145" y="190" text-anchor="start" class="tiny">e.g. CSE-CIC-IDS2018: D_0 = Flood = {DDoS, DoS}</text><polygon points="310,81 490,81 464.8,139 335.2,139" fill="#fff" stroke="#333333" stroke-width="1.4"/><text x="400.0" y="101.0" text-anchor="middle" class="lblB">XGB_k</text><text x="400.0" y="118.0" text-anchor="middle" class="small">trains classifier</text><rect x="310" y="241" width="180" height="58" fill="#fff" stroke="#333333" stroke-width="1.4"/><text x="400.0" y="261.0" text-anchor="middle" class="lblB">MLP_k</text><text x="400.0" y="278.0" text-anchor="middle" class="small">trains OOD model</text><path d="M260 210 V110 H310" class="edge"/><path d="M260 210 V270 H310" class="edge"/><path d="M123 440 H270 V270 H310" class="dash"/><polygon points="680.0,231 780,270.0 680.0,309 580,270.0" fill="#fff" stroke="#333333" stroke-width="1.4"/><text x="680.0" y="270.0" text-anchor="middle" class="lbl">OOD</text><path d="M490 270 H580" class="edge"/><text x="535" y="258" text-anchor="middle" class="small">logits</text><rect x="850" y="81" width="260" height="58" fill="#fff" stroke="#333333" stroke-width="1.4"/><text x="980.0" y="101.0" text-anchor="middle" class="lblB">class posterior</text><text x="980.0" y="118.0" text-anchor="middle" class="small">over D_k</text><rect x="850" y="241" width="260" height="58" fill="#fff" stroke="#333333" stroke-width="1.4"/><text x="980.0" y="270.0" text-anchor="middle" class="lblB">energy score s_k(x)</text><path d="M490 110 H850" class="edge"/><path d="M780 270 H850" class="edge"/><line x1="20" y1="530" x2="1540" y2="530" stroke="#ccc" stroke-width="1"/><text x="30" y="585" class="panel">(B) Test-Time Inference</text><path d="M47,679.64 V736.36 A38,10.64 0 0 0 123,736.36 V679.64" fill="#fff" stroke="#333333" stroke-width="1.4"/><ellipse cx="85" cy="679.64" rx="38" ry="10.64" fill="#fff" stroke="#333333" stroke-width="1.4"/><text x="85" y="765.0" text-anchor="middle" class="math">D_test</text><polygon points="335.0,630 440,665.0 335.0,700 230,665.0" fill="#fff" stroke="#333333" stroke-width="1.4"/><text x="335.0" y="656.0" text-anchor="middle" class="lbl">Exp 1</text><text x="335.0" y="673.0" text-anchor="middle" class="lbl">OOD</text><polygon points="335.0,708 440,743.0 335.0,778 230,743.0" fill="#fff" stroke="#333333" stroke-width="1.4"/><text x="335.0" y="734.0" text-anchor="middle" class="lbl">Exp 2</text><text x="335.0" y="751.0" text-anchor="middle" class="lbl">OOD</text><circle cx="335" cy="787" r="1.8" fill="#444"/><circle cx="335" cy="794" r="1.8" fill="#444"/><circle cx="335" cy="801" r="1.8" fill="#444"/><polygon points="335.0,817.2 440,852.2 335.0,887.2 230,852.2" fill="#fff" stroke="#333333" stroke-width="1.4"/><text x="335.0" y="843.2" text-anchor="middle" class="lbl">Exp K</text><text x="335.0" y="860.2" text-anchor="middle" class="lbl">OOD</text><path d="M123 708 H185 V665.0 H230" class="edge"/><path d="M123 708 H185 V743.0 H230" class="edge"/><path d="M123 708 H185 V852.2 H230" class="edge"/><polygon points="540,624 730,624 703.4,690 566.6,690" fill="#00CC00" stroke="#333333" stroke-width="1.4"/><text x="635.0" y="657.0" text-anchor="middle" class="lblB">Exp 1</text><polygon points="540,702 730,702 703.4,768 566.6,768" fill="#00CC00" stroke="#333333" stroke-width="1.4"/><text x="635.0" y="735.0" text-anchor="middle" class="lblB">Exp 2</text><polygon points="540,811.2 730,811.2 703.4,877.2 566.6,877.2" fill="#fff" stroke="#333333" stroke-width="1.4"/><text x="635.0" y="844.2" text-anchor="middle" class="lblB">Exp K</text><path d="M440 665.0 H540" class="edge"/><text x="485" y="655.0" text-anchor="middle" class="small">IN</text><path d="M440 743.0 H540" class="edge"/><text x="485" y="733.0" text-anchor="middle" class="small">IN</text><path d="M440 852.2 H510 V850.2 H540" class="dash"/><text x="485" y="842.2" text-anchor="middle" class="small">OUT</text><rect x="820" y="630" width="230" height="64" fill="#fff" stroke="#333333" stroke-width="1.4"/><text x="935.0" y="662.0" text-anchor="middle" class="lblB">single-IN</text><rect x="820" y="704" width="230" height="64" fill="#fff" stroke="#333333" stroke-width="1.4" stroke-dasharray="5 4"/><text x="935.0" y="736.0" text-anchor="middle" class="lblB">multi-IN</text><rect x="820" y="797.7" width="230" height="64" fill="#fff" stroke="#333333" stroke-width="1.4" stroke-dasharray="5 4"/><text x="935.0" y="829.7" text-anchor="middle" class="lblB">all-OUT</text><path d="M730 662.0 H820" class="edge"/><path d="M730 736.0 H820" class="dash"/><path d="M730 850.2 H790 V829.7 H820" class="dash"/><text x="935" y="784" text-anchor="middle" class="formula">argmax_k [ conf_k + &#955;&#183;stab_k ]</text><text x="935" y="877.7" text-anchor="middle" class="formula">||x &#8722; &#956;_benign|| vs. &#964;</text><rect x="1110" y="785.7" width="230" height="34" fill="#fff" stroke="#333333" stroke-width="1.4" stroke-dasharray="5 4"/><text x="1225.0" y="802.7" text-anchor="middle" class="small">close  -&gt;  benign</text><rect x="1110" y="827.7" width="230" height="34" fill="#fff" stroke="#333333" stroke-width="1.4" stroke-dasharray="5 4"/><text x="1225.0" y="844.7" text-anchor="middle" class="small">far  -&gt;  unseen attack</text><path d="M1050 802.7 H1110" class="dash"/><path d="M1050 844.7 H1110" class="dash"/>
</svg>